# xmcd CD database file
#
# Track frame offsets:
#	150
#	27078
#	48438
#	77110
#	100956
#	125511
#	158610
#	181636
#	207358
#	231939
#
# Disc length: 3443 seconds
#
# Revision: 0
# Processed by: cddbd v1.5.1PL0 Copyright (c) Steve Scherf et al.
# Submitted via: CDex 1.60beta1
#
DISCID=770d710a
DTITLE=Grover Washington, Jr.  - Anthology Of Grover Washington Jr.
DYEAR=1900
DGENRE=Jazz
TTITLE0=The Best Is Yet To Come 
TTITLE1=East River Drive 
TTITLE2=Be Mine (Tonight) 
TTITLE3=Can You Dig It 
TTITLE4=In The Name Of Love 
TTITLE5=Just The Two Of Us 
TTITLE6=Jammin' 
TTITLE7=Little Black Samba 
TTITLE8=Jet Stream 
TTITLE9=Let It Flow (For Dr.J) 
EXTD=
EXTT0=
EXTT1=
EXTT2=
EXTT3=
EXTT4=
EXTT5=
EXTT6=
EXTT7=
EXTT8=
EXTT9=
PLAYORDER=
